<svg width="18" height="18" viewBox="0 0 18 18" fill="none" xmlns="http://www.w3.org/2000/svg">
<mask id="mask0_2_42" style="mask-type:alpha" maskUnits="userSpaceOnUse" x="0" y="0" width="18" height="18">
<rect width="18" height="18" fill="#D9D9D9"/>
</mask>
<g mask="url(#mask0_2_42)">
<path d="M0.75 11.25C0.75 9.8875 1.31875 8.79688 2.45625 7.97812C3.59375 7.15937 4.9 6.75 6.375 6.75C7.85 6.75 9.15625 7.15937 10.2938 7.97812C11.4313 8.79688 12 9.8875 12 11.25H0.75ZM0.75 14.25V12.75H12V14.25H0.75ZM1.5 17.25C1.2875 17.25 1.10938 17.1781 0.965625 17.0344C0.821875 16.8906 0.75 16.7125 0.75 16.5V15.75H12V16.5C12 16.7125 11.9281 16.8906 11.7844 17.0344C11.6406 17.1781 11.4625 17.25 11.25 17.25H1.5ZM13.5 17.25V11.25C13.5 9.825 13.0125 8.59375 12.0375 7.55625C11.0625 6.51875 9.86875 5.825 8.45625 5.475L8.25 3.75H12V0.75H13.5V3.75H17.25L16.0312 15.9C15.9937 16.2875 15.8344 16.6094 15.5531 16.8656C15.2719 17.1219 14.9375 17.25 14.55 17.25H13.5Z" fill="#D0006D"/>
</g>
</svg>
