<svg width="20" height="20" viewBox="0 0 20 20" fill="none" xmlns="http://www.w3.org/2000/svg">
<mask id="mask0_2_33" style="mask-type:alpha" maskUnits="userSpaceOnUse" x="0" y="0" width="20" height="20">
<rect width="20" height="20" fill="#D9D9D9"/>
</mask>
<g mask="url(#mask0_2_33)">
<path d="M6.35416 5.33334L8.68749 2.31251C8.85416 2.09028 9.05207 1.92709 9.28124 1.82292C9.51041 1.71876 9.74999 1.66667 9.99999 1.66667C10.25 1.66667 10.4896 1.71876 10.7187 1.82292C10.9479 1.92709 11.1458 2.09028 11.3125 2.31251L13.6458 5.33334L17.1875 6.52084C17.5486 6.63195 17.8333 6.83681 18.0417 7.13542C18.25 7.43403 18.3542 7.76389 18.3542 8.125C18.3542 8.29167 18.3299 8.45834 18.2812 8.62501C18.2326 8.79167 18.1528 8.95139 18.0417 9.10417L15.75 12.3542L15.8333 15.7708C15.8472 16.257 15.6875 16.6667 15.3542 17C15.0208 17.3333 14.6319 17.5 14.1875 17.5C14.1597 17.5 14.0069 17.4792 13.7292 17.4375L9.99999 16.3958L6.27082 17.4375C6.20138 17.4653 6.12499 17.4826 6.04166 17.4896C5.95832 17.4965 5.88193 17.5 5.81249 17.5C5.36805 17.5 4.97916 17.3333 4.64582 17C4.31249 16.6667 4.15277 16.257 4.16666 15.7708L4.24999 12.3333L1.97916 9.10417C1.86805 8.95139 1.78818 8.79167 1.73957 8.62501C1.69096 8.45834 1.66666 8.29167 1.66666 8.125C1.66666 7.77778 1.76735 7.45487 1.96874 7.15626C2.17013 6.85764 2.45138 6.64584 2.81249 6.52084L6.35416 5.33334Z" fill="#F4EA0F"/>
</g>
</svg>
