<svg width="14" height="19" viewBox="0 0 14 19" fill="none" xmlns="http://www.w3.org/2000/svg">
<path d="M7.5832 18.0733C9.38672 15.8163 13.5 10.3459 13.5 7.27328C13.5 3.54672 10.4766 0.523285 6.75 0.523285C3.02344 0.523285 0 3.54672 0 7.27328C0 10.3459 4.11328 15.8163 5.9168 18.0733C6.34922 18.6112 7.15078 18.6112 7.5832 18.0733ZM6.75 5.02328C7.34674 5.02328 7.91903 5.26034 8.34099 5.68229C8.76295 6.10425 9 6.67655 9 7.27328C9 7.87002 8.76295 8.44232 8.34099 8.86427C7.91903 9.28623 7.34674 9.52328 6.75 9.52328C6.15326 9.52328 5.58097 9.28623 5.15901 8.86427C4.73705 8.44232 4.5 7.87002 4.5 7.27328C4.5 6.67655 4.73705 6.10425 5.15901 5.68229C5.58097 5.26034 6.15326 5.02328 6.75 5.02328Z" fill="#D0006D"/>
</svg>
