<svg width="251" height="52" viewBox="0 0 251 52" fill="none" xmlns="http://www.w3.org/2000/svg">
<path d="M186.071 22.5893L186.108 22.5154C193.608 22.5154 197.192 27.5034 197.192 33.6368C197.192 39.7702 194.347 44.7582 186.847 44.7582C183.78 44.7582 180.935 43.3172 179.605 41.4698V46.1622L179.642 46.2361C179.642 49.5245 180.64 51.2611 181.046 51.8153L181.194 52H172.326L172.4 51.9261C172.511 51.7783 172.733 51.4828 172.991 51.0024L173.028 50.9285C173.398 50.1157 173.804 48.8594 173.915 47.0859V28.7596C173.915 25.1756 172.548 23.2913 172.363 23.0696C175.356 24.3997 178.792 24.4736 181.822 23.1804C182.709 22.811 184.852 22.5893 186.071 22.5893ZM185.554 43.1325V43.1694C189.101 43.1694 191.465 39.179 191.465 33.6737C191.465 28.2054 189.101 24.178 185.554 24.178C181.046 24.178 179.642 28.2054 179.642 33.6737C179.642 37.2208 181.046 43.1325 185.554 43.1325Z" fill="#D0006D"/>
<path d="M158.612 22.5893L158.649 22.5154C166.149 22.5154 169.733 27.5034 169.733 33.6368C169.733 39.7702 166.888 44.7583 159.388 44.7583C156.321 44.7583 153.476 43.3173 152.146 41.4699V46.1623L152.183 46.2362C152.183 49.5246 153.181 51.2611 153.587 51.8154L153.735 52.0001H144.867L144.941 51.9262C145.052 51.7784 145.274 51.4828 145.532 51.0025L145.569 50.9286C145.939 50.1157 146.345 48.8595 146.456 47.086V28.7597C146.456 25.1757 145.089 23.2914 144.904 23.0697C147.897 24.3998 151.333 24.4737 154.363 23.1805C155.25 22.811 157.393 22.5893 158.612 22.5893ZM158.095 43.1325V43.1695C161.642 43.1695 164.006 39.1791 164.006 33.6738C164.006 28.2055 161.642 24.1781 158.095 24.1781C153.587 24.1781 152.183 28.2055 152.183 33.6738C152.183 37.2208 153.587 43.1325 158.095 43.1325Z" fill="#D0006D"/>
<path d="M140.863 38.6619L140.9 38.588C140.9 40.4723 141.27 41.9133 141.639 42.874C141.972 43.7238 142.304 44.1672 142.378 44.278C139.385 42.9479 135.949 42.874 132.919 44.1672C132.033 44.5366 130.444 44.7583 129.224 44.7583C121.724 44.7583 119.101 39.7703 119.101 33.6369V28.6859C119.101 26.469 118.657 24.9911 118.251 24.0673L118.214 23.9935C117.955 23.5131 117.734 23.2175 117.623 23.0697L117.549 22.9958H125.899L125.751 23.1806C125.345 23.7348 124.347 25.4714 124.347 28.7598V34.9301C124.347 40.3984 125.677 43.1696 129.224 43.1696C133.732 43.1696 135.099 40.3984 135.099 34.9301L135.062 28.7228C135.062 26.5059 134.619 25.028 134.212 24.1043L134.176 24.0304C133.917 23.5501 133.695 23.2545 133.584 23.1067L133.51 23.0328H142.378L142.23 23.2175C141.824 23.7718 140.826 25.5083 140.826 28.7967L140.863 38.6619Z" fill="#D0006D"/>
<path d="M114.314 38.6985V38.6616C114.314 42.6889 115.866 44.3886 115.866 44.3886H113.76C111.691 44.3886 109.437 43.0584 108.809 41.211C107.479 43.2062 104.523 44.8319 101.235 44.8319C94.7688 44.8319 91.0001 39.8439 91.0001 33.7105C91.0001 27.5771 94.3255 22.5891 101.272 22.5891C104.375 22.5891 107.257 24.0301 108.587 25.8775V20.8895C108.587 16.8622 107.036 15.1625 107.036 15.1625H109.105C111.691 15.1625 114.314 17.2686 114.314 19.855V38.6985ZM102.639 43.2062V43.1693C107.11 43.1693 108.551 37.2576 108.551 33.7105C108.551 28.2422 107.146 24.2148 102.639 24.2148C99.0918 24.2148 96.764 28.2422 96.764 33.7105C96.764 39.2158 99.0918 43.2062 102.639 43.2062Z" fill="#D0006D"/>
<path d="M80.4567 44.2409L80.4198 44.3148C80.8262 43.7606 81.8238 42.024 81.8238 38.7356V32.5653C81.8238 27.0969 80.4937 24.3258 76.9466 24.3258C72.439 24.3258 71.0719 27.0969 71.0719 32.5653L71.1088 38.7726C71.1088 40.9894 71.5522 42.4674 71.9586 43.3911L71.9956 43.465C72.2542 43.9453 72.4759 44.2409 72.5868 44.3887L72.6607 44.4626H63.7931L63.9409 44.2778C64.3473 43.7236 65.3449 41.987 65.3449 38.6987L65.308 28.8335C65.308 26.9491 64.9385 25.5082 64.569 24.5475C64.2365 23.6977 63.9039 23.2543 63.83 23.1435C66.8228 24.4736 70.259 24.5475 73.2888 23.2543C74.1755 22.8848 75.7643 22.6631 76.9836 22.6631C84.4841 22.6631 87.1074 27.6512 87.1074 33.7846V38.7356C87.1074 40.9525 87.5508 42.4304 87.9572 43.3541L87.9942 43.428C88.2528 43.9084 88.4745 44.2039 88.5853 44.3517L88.6592 44.4256H80.3089L80.4567 44.2409Z" fill="#D0006D"/>
<path d="M59.6852 28.7966L59.6483 39.216C59.6483 42.5413 61.2001 44.3887 61.2001 44.3887H57.2467C55.6948 44.3887 53.9213 43.1325 53.9213 41.5806C52.5912 43.4281 51.0763 44.869 48.0096 44.869C40.5091 44.869 36.334 39.881 36.334 33.7476C36.334 27.6142 40.5091 22.6262 48.0096 22.6262C49.2289 22.6262 50.8177 22.8479 51.7414 23.2174C54.7711 24.5106 58.2073 24.4367 61.2371 23.0696C61.2371 23.0696 59.6852 24.9909 59.6852 28.7966ZM47.9727 43.2064V43.1694C52.4803 43.1694 53.8844 37.2577 53.8844 33.7107C53.8844 28.2423 52.4803 24.215 47.9727 24.215C44.4256 24.215 42.061 28.2423 42.061 33.7107C42.061 39.216 44.4256 43.2064 47.9727 43.2064Z" fill="#D0006D"/>
<path d="M32.1099 38.6617C32.1099 41.9501 33.1445 43.6866 33.514 44.2408L33.6618 44.4256H24.7942L24.942 44.2408C25.3484 43.6866 26.346 41.9501 26.346 38.6617V25.1017L18.4022 44.3886H12.1949L3.1795 22.5523V38.6617C3.1795 41.9501 4.1771 43.6866 4.58353 44.2408L4.73132 44.4256H0.00195312L0.149746 44.2408C0.556176 43.6866 1.55378 41.9501 1.55378 38.6617V24.2519C1.55378 20.2245 0.00195312 18.5249 0.00195312 18.5249H7.72412L17.5154 42.2456L27.3067 18.5249H33.6618C33.6618 18.5249 32.1099 20.2245 32.1099 24.2519V38.6617Z" fill="#D0006D"/>
<path d="M64.1605 12.2036L62.4611 12.538C62.6277 13.3848 63.3923 13.9797 64.254 13.9331C65.1158 13.8865 65.8117 13.2125 65.886 12.3528L64.1605 12.2036ZM53.6245 6.86332L52.4733 5.56935L53.6245 6.86332ZM57.1224 27.8132C60.5264 26.4593 66.5764 23.5111 71.5795 19.8755C74.076 18.0613 76.403 16.011 77.9976 13.8305C79.5814 11.6647 80.6155 9.12166 79.9906 6.46651L76.6188 7.26014C76.9124 8.50736 76.5043 10.0044 75.2015 11.7858C73.9096 13.5525 71.9056 15.3566 69.5432 17.0733C64.8285 20.4994 59.0488 23.3192 55.8422 24.5945L57.1224 27.8132ZM79.9906 6.46651C79.4334 4.09948 78.1176 2.30642 76.3351 1.2655C74.5674 0.233254 72.4704 0.0166291 70.4757 0.549353C66.4347 1.62857 62.9877 5.65799 62.435 12.0545L65.886 12.3528C66.3435 7.05847 69.0501 4.51537 71.3694 3.89595C72.5549 3.57936 73.6896 3.73189 74.5884 4.25672C75.4722 4.77287 76.2574 5.72481 76.6188 7.26014L79.9906 6.46651ZM65.8598 11.8693C65.6182 10.6414 64.8557 9.4576 63.994 8.48259C63.1034 7.47481 61.9643 6.52858 60.7359 5.79457C59.5177 5.06666 58.1194 4.49268 56.7107 4.33767C55.2775 4.17997 53.7272 4.45376 52.4733 5.56935L54.7757 8.15729C55.1083 7.86139 55.5899 7.69914 56.3318 7.78078C57.0983 7.86512 58.0183 8.20588 58.9591 8.76808C59.8898 9.32418 60.7507 10.0434 61.3985 10.7764C62.0752 11.5422 62.3896 12.1745 62.4611 12.538L65.8598 11.8693ZM52.4733 5.56935C51.3685 6.55223 50.3483 7.76962 49.9678 9.34312C49.5741 10.971 49.9393 12.6538 50.9441 14.3932C52.8695 17.7262 57.5014 21.8736 65.9252 27.6335L67.8803 24.7742C59.4176 18.9876 55.4272 15.229 53.9435 12.6606C53.2438 11.4493 53.2077 10.6825 53.3347 10.1573C53.4748 9.57783 53.8973 8.93879 54.7757 8.15729L52.4733 5.56935Z" fill="#D0006D"/>
<path d="M201.99 44.6233C201.084 44.6233 200.346 43.8843 200.346 42.9791C200.346 42.0739 201.084 41.3349 201.99 41.3349C202.895 41.3349 203.634 42.0739 203.634 42.9791C203.634 43.8843 202.895 44.6233 201.99 44.6233ZM211.732 43.8104H211.769C214.54 43.8104 216.424 41.1317 216.443 41.1132C215.686 43.1084 214.337 44.7341 210.753 44.7341C207.095 44.7341 204.841 42.2032 204.841 39.1365C204.841 36.0698 207.132 33.6127 210.79 33.6127C213.228 33.6127 215.649 34.6658 216.388 36.3284C216.683 36.9935 216.203 37.7509 215.464 37.7509H213.579C213.949 35.9405 211.954 34.0376 209.792 34.518C207.335 35.0537 207.354 37.8803 207.779 39.857C208.204 41.8337 209.423 43.8104 211.732 43.8104ZM223.653 33.6127C227.717 33.6127 229.602 36.1067 229.602 39.1734C229.602 42.2401 227.717 44.7341 223.653 44.7341C219.589 44.7341 217.705 42.2401 217.705 39.1734C217.705 36.1067 219.589 33.6127 223.653 33.6127ZM225.279 43.6442H225.26C227.607 42.7944 227.219 40.0417 226.535 38.1389C225.852 36.2361 224.392 33.8529 222.046 34.7027C219.7 35.5525 220.106 38.3236 220.79 40.2265C221.473 42.1293 222.933 44.494 225.279 43.6442ZM245.375 44.4386L245.357 44.5309C245.56 44.2538 246.059 43.3855 246.059 41.7413V38.6562C246.059 35.922 245.56 34.5364 244.415 34.5364C242.512 34.5364 241.791 35.8112 241.736 38.3975V41.7598C241.736 42.8683 241.958 43.6072 242.161 44.0691L242.179 44.106C242.309 44.3462 242.42 44.494 242.475 44.5679L242.512 44.6048H238.078L238.152 44.5125C238.355 44.2353 238.854 43.3671 238.854 41.7229V38.6377C238.854 38.6192 238.854 38.6192 238.854 38.6007C238.854 35.8666 238.355 34.481 237.21 34.481C235.252 34.481 234.513 35.8666 234.513 38.6007L234.531 41.7044C234.531 42.8128 234.753 43.5518 234.956 44.0137L234.974 44.0506C235.104 44.2908 235.215 44.4386 235.27 44.5125L235.307 44.5494H230.873L230.947 44.457C231.15 44.1799 231.649 43.3116 231.649 41.6674L231.631 36.7349C231.631 35.7927 231.446 35.0722 231.261 34.5919C231.095 34.167 230.929 33.9453 230.892 33.8898C232.388 34.5549 234.106 34.5919 235.621 33.9453C236.064 33.7605 236.859 33.6497 237.468 33.6497C239.057 33.6497 240.129 34.4256 240.757 35.6449C241.385 34.6473 242.66 33.6497 244.359 33.6497C247.592 33.6497 248.959 36.1437 248.959 39.2104V41.6859C248.959 42.7944 249.181 43.5333 249.384 43.9952L249.403 44.0321C249.532 44.2723 249.643 44.4201 249.698 44.494L249.735 44.5309H245.302L245.375 44.4386Z" fill="#D0006D"/>
</svg>
